<?xml version="1.0" encoding="UTF-8"?>
<svg width="16px" height="16px" viewBox="0 0 16 16" version="1.1" xmlns="http://www.w3.org/2000/svg" xmlns:xlink="http://www.w3.org/1999/xlink">
    <title>ActionDelete</title>
    <defs>
        <polygon id="path-1" points="0 15.9825743 15.9874535 15.9825743 15.9874535 0 0 0"></polygon>
    </defs>
    <g id="MASTER-DOC" stroke="none" stroke-width="1" fill="none" fill-rule="evenodd">
        <g id="ACTION-PICKER-ALT" transform="translate(-16.000000, -614.000000)">
            <g id="ActionDelete" transform="translate(16.000000, 614.000000)">
                <path d="M7.94294495,13.65024 C8.29291723,13.65024 8.57660832,13.3665489 8.57660832,13.0165766 L8.57660832,7.96003802 C8.57660832,7.61006574 8.29291723,7.32637465 7.94294495,7.32637465 C7.59297267,7.32637465 7.30928158,7.61006574 7.30928158,7.96003802 L7.30928158,13.0165766 C7.30928158,13.3665489 7.59297267,13.65024 7.94294495,13.65024" id="Fill-1" fill="#262626"></path>
                <path d="M10.5573006,13.6446416 C10.5857838,13.6484752 10.6140451,13.6503129 10.6420531,13.6503129 C10.9546709,13.6503129 11.2267659,13.418899 11.2693481,13.1005149 L11.9451184,8.04397624 C11.9914709,7.69710891 11.7478273,7.37834455 11.40096,7.3319604 C11.0544412,7.2856396 10.7352966,7.52918812 10.6889125,7.87611881 L10.0131739,12.9326257 C9.9667897,13.2795248 10.2104333,13.5982891 10.5573006,13.6446416" id="Fill-3" fill="#262626"></path>
                <path d="M4.68666614,13.1028404 C4.73026218,13.4203057 5.00191366,13.6502939 5.31361267,13.6502939 C5.34231762,13.6502939 5.37143446,13.6483612 5.40067802,13.6443374 C5.74738693,13.5967176 5.98982653,13.2770345 5.94217505,12.9303255 L5.24739485,7.87378693 C5.19980673,7.52714139 4.88015525,7.28451168 4.53338297,7.3322899 C4.18670574,7.3799097 3.94423446,7.69959287 3.99188594,8.04630178 L4.68666614,13.1028404 Z" id="Fill-5" fill="#262626"></path>
                <mask id="mask-2" fill="white">
                    <use xlink:href="#path-1"></use>
                </mask>
                <g id="Clip-8"></g>
                <path d="M1.26732673,4.97511287 L14.7201267,4.97511287 L14.7201267,3.75692673 L1.26732673,3.75692673 L1.26732673,4.97511287 Z M5.60323168,1.26732673 L10.2826772,1.26732673 L11.236499,2.4896 L4.64937822,2.4896 L5.60323168,1.26732673 Z M12.7345743,14.0408396 L12.7329901,14.052499 L12.7316594,14.0641901 C12.6890139,14.4353584 12.3751921,14.7152475 12.0015842,14.7152475 L3.98586931,14.7152475 C3.61229307,14.7152475 3.29840792,14.4353584 3.25579406,14.0641901 L3.25446337,14.052499 L3.25287921,14.0408396 L2.21135842,6.24769901 L13.776095,6.24769901 L12.7345743,14.0408396 Z M15.7868356,2.4896 L12.844103,2.4896 L11.271699,0.474708911 C11.0362931,0.173021782 10.6818535,0 10.2991525,0 L5.58672475,0 C5.20405545,0 4.84958416,0.173021782 4.61427327,0.474645545 L3.04180594,2.4896 L0.200586139,2.4896 C0.0898217822,2.4896 0,2.57942178 0,2.69018614 L0,6.04188515 C0,6.1526495 0.0898217822,6.2424396 0.200586139,6.2424396 L0.932087129,6.2424396 L1.99673663,14.2087287 C2.11279208,15.2195168 2.96839604,15.9825743 3.98586931,15.9825743 L12.0015842,15.9825743 C13.0190257,15.9825743 13.8746614,15.2195168 13.9906851,14.2087287 L15.0553663,6.2424396 L15.7868356,6.2424396 C15.8976317,6.2424396 15.9874535,6.1526495 15.9874535,6.04188515 L15.9874535,2.69018614 C15.9874535,2.57942178 15.8976317,2.4896 15.7868356,2.4896 L15.7868356,2.4896 Z" id="Fill-7" fill="#262626" mask="url(#mask-2)"></path>
            </g>
        </g>
    </g>
</svg>