<?xml version="1.0" encoding="UTF-8"?>
<svg width="17px" height="17px" viewBox="0 0 17 17" version="1.1" xmlns="http://www.w3.org/2000/svg" xmlns:xlink="http://www.w3.org/1999/xlink">
    <title>ActionEdit</title>
    <defs>
        <polygon id="path-1" points="0 0.0260566929 13.5487528 0.0260566929 13.5487528 13.5748031 0 13.5748031"></polygon>
    </defs>
    <g id="MASTER-DOC" stroke="none" stroke-width="1" fill="none" fill-rule="evenodd">
        <g id="ACTION-PICKER-ALT" transform="translate(-16.000000, -667.000000)">
            <g id="ActionEdit" transform="translate(16.500000, 667.000000)">
                <g id="Group-3" transform="translate(0.000000, 2.403213)">
                    <mask id="mask-2" fill="white">
                        <use xlink:href="#path-1"></use>
                    </mask>
                    <g id="Clip-2"></g>
                    <path d="M12.8400913,6.05607244 C12.4486898,6.05607244 12.1314299,6.37333228 12.1314299,6.76473386 L12.1314299,10.0130803 C12.1314299,11.1955055 11.1694457,12.1574898 9.98702047,12.1574898 L3.56172913,12.1574898 C2.37930394,12.1574898 1.41731969,11.1955055 1.41731969,10.0130803 L1.41731969,3.58778898 C1.41731969,2.40536378 2.37930394,1.44337953 3.56172913,1.44337953 L6.81007559,1.44337953 C7.20147717,1.44337953 7.51873701,1.12611969 7.51873701,0.73471811 C7.51873701,0.343316535 7.20147717,0.0260566929 6.81007559,0.0260566929 L3.56172913,0.0260566929 C1.59779213,0.0260566929 -3.1496063e-06,1.62382047 -3.1496063e-06,3.58778898 L-3.1496063e-06,10.0130803 C-3.1496063e-06,11.9770173 1.59779213,13.5748126 3.56172913,13.5748126 L9.98702047,13.5748126 C11.950989,13.5748126 13.5487528,11.9770173 13.5487528,10.0130803 L13.5487528,6.76473386 C13.5487528,6.37333228 13.2314929,6.05607244 12.8400913,6.05607244" id="Fill-1" fill="#262626" mask="url(#mask-2)"></path>
                </g>
                <path d="M13.9791465,3.57739528 L12.3568157,1.95506457 L13.0080598,1.30378898 L14.630422,2.92611969 L13.9791465,3.57739528 Z M10.0861386,7.47040315 L8.46387087,5.84804094 L11.4659496,2.84593071 L13.0882803,4.46826142 L10.0861386,7.47040315 Z M7.11376063,8.82045039 L7.6156189,6.89185197 C7.62302047,6.86334803 7.63212283,6.83544252 7.6419811,6.80782047 L9.12635906,8.29222992 C9.09873701,8.30208819 9.0708315,8.31119055 9.04232756,8.31859213 L7.11376063,8.82045039 Z M15.5963118,2.11030866 L13.8239024,0.337899213 C13.6059811,0.120040945 13.3162488,9.4488189e-06 13.0080913,9.4488189e-06 C12.6999024,9.4488189e-06 12.4101701,0.120040945 12.1922488,0.337899213 L6.9868,5.54334803 C6.7019811,5.82819843 6.49782362,6.18479685 6.3963748,6.57459213 L5.74267402,9.08668661 C5.66091024,9.40092283 5.74913071,9.72567874 5.97873701,9.95531654 C6.15202835,10.1286394 6.37946142,10.2214268 6.61568189,10.2214268 C6.69250079,10.2214268 6.77029606,10.2116315 6.84742992,10.1915685 L9.35968189,9.53780472 C9.74954016,9.43632441 10.1061386,9.23213543 10.3908315,8.94737953 L15.5963118,3.7419937 C15.8142016,3.52407244 15.9342016,3.23430866 15.9342016,2.92611969 C15.9342016,2.6179622 15.8142016,2.32822992 15.5963118,2.11030866 L15.5963118,2.11030866 Z" id="Fill-4" fill="#262626"></path>
            </g>
        </g>
    </g>
</svg>