<?xml version="1.0" encoding="UTF-8"?>
<svg width="16px" height="16px" viewBox="0 0 16 16" version="1.1" xmlns="http://www.w3.org/2000/svg" xmlns:xlink="http://www.w3.org/1999/xlink">
    <title>Fill 1</title>
    <g id="test" stroke="none" stroke-width="1" fill="none" fill-rule="evenodd">
        <path d="M11.0145534,0 C13.5632401,0 15.6424276,2.04016634 15.7529544,4.599068 L15.7575758,4.81347797 L15.7575758,14.7645516 C15.7575758,15.7690262 14.64862,16.3352855 13.8600409,15.7852484 L13.7632405,15.7106307 L8.81574973,11.5135567 C8.31212124,11.0863037 7.59567667,11.0557856 7.06164589,11.4220025 L6.94182603,11.5135567 L1.99433525,15.7106307 C1.2349065,16.3548697 0.0956015837,15.8545589 0.00567227629,14.8877795 L0,14.7645516 L0,4.81347797 C0,2.22693163 2.01027532,0.116858629 4.53172039,0.00468999773 L4.74299194,0 L11.0145534,0 Z M11.0145534,1.5 L4.74299194,1.5 C3.01852378,1.5 1.60086966,2.87837725 1.50515091,4.62497905 L1.5,4.81347797 L1.5,14.161 L5.97144976,10.3697168 C7.02349092,9.477218 8.53863781,9.43664987 9.6327645,10.2479997 L9.78610876,10.3697021 L14.257,14.162 L14.2575758,4.81347797 C14.2575758,3.04187138 12.8993659,1.60239603 11.1980985,1.50522842 L11.0145534,1.5 Z" id="Fill-1" fill="#262626" fill-rule="nonzero"></path>
    </g>
</svg>