<svg width="15" height="15" viewBox="0 0 15 15" fill="none" xmlns="http://www.w3.org/2000/svg">
<path fill-rule="evenodd" clip-rule="evenodd" d="M15 7.5C15 9.48912 14.2098 11.3968 12.8033 12.8033C11.3968 14.2098 9.48912 15 7.5 15C5.51088 15 3.60322 14.2098 2.1967 12.8033C0.790176 11.3968 0 9.48912 0 7.5C0 5.51088 0.790176 3.60322 2.1967 2.1967C3.60322 0.790176 5.51088 0 7.5 0C9.48912 0 11.3968 0.790176 12.8033 2.1967C14.2098 3.60322 15 5.51088 15 7.5V7.5Z" fill="#8C8C8C"/>
<path fill-rule="evenodd" clip-rule="evenodd" d="M5.05197 4.09033L4.16813 4.94879L6.62928 7.48725L4.09082 9.94841L4.94928 10.8323L7.48774 8.3711L9.9489 10.9096L10.8327 10.0511L8.37159 7.51264L10.9101 5.05149L10.0516 4.16764L7.51313 6.62879L5.05197 4.09033Z" fill="#F2F2F2"/>
</svg>
