<?xml version="1.0" encoding="UTF-8"?>
<svg width="12px" height="14px" viewBox="0 0 12 14" version="1.1" xmlns="http://www.w3.org/2000/svg" xmlns:xlink="http://www.w3.org/1999/xlink">
    <title>Cancel Search</title>
    <defs>
        <polygon id="path-1" points="0 0.035027027 11.964 0.035027027 11.964 11.6756757 0 11.6756757"></polygon>
    </defs>
    <g id="MASTER-DOC" stroke="none" stroke-width="1" fill="none" fill-rule="evenodd">
        <g id="EDIT-PROFILE-03" transform="translate(-348.000000, -86.000000)">
            <g id="Cancel-Search" transform="translate(348.000000, 86.500000)">
                <g id="Group-3" transform="translate(0.000000, 0.289362)">
                    <mask id="mask-2" fill="white">
                        <use xlink:href="#path-1"></use>
                    </mask>
                    <g id="Clip-2"></g>
                    <path d="M11.9642,5.85535135 C11.9642,9.06972973 9.28586667,11.6756757 5.9822,11.6756757 C2.67853333,11.6756757 -0.000133333333,9.06972973 -0.000133333333,5.85535135 C-0.000133333333,2.64097297 2.67853333,0.035027027 5.9822,0.035027027 C9.28586667,0.035027027 11.9642,2.64097297 11.9642,5.85535135" id="Fill-1" fill="#8C8C8C" mask="url(#mask-2)"></path>
                </g>
                <path d="M3.40236667,8.97882162 C3.31703333,8.97882162 3.2317,8.94703784 3.1667,8.88379459 C3.03636667,8.75730811 3.03636667,8.55168649 3.1667,8.4252 L8.32603333,3.40563243 C8.45603333,3.27882162 8.66703333,3.27882162 8.79736667,3.40563243 C8.92736667,3.53211892 8.92736667,3.73741622 8.79736667,3.86422703 L3.63803333,8.88379459 C3.57303333,8.94703784 3.4877,8.97882162 3.40236667,8.97882162" id="Fill-4" stroke="#F2F2F2" stroke-width="0.25" fill="#F2F2F2"></path>
                <path d="M8.56153333,8.97882162 C8.4762,8.97882162 8.39086667,8.94703784 8.32586667,8.88379459 L3.16653333,3.86422703 C3.03653333,3.73741622 3.03653333,3.53211892 3.16653333,3.40563243 C3.29686667,3.27882162 3.50786667,3.27882162 3.63786667,3.40563243 L8.7972,8.4252 C8.92753333,8.55168649 8.92753333,8.75730811 8.7972,8.88379459 C8.7322,8.94703784 8.64686667,8.97882162 8.56153333,8.97882162" id="Fill-6" stroke="#F2F2F2" stroke-width="0.25" fill="#F2F2F2"></path>
            </g>
        </g>
    </g>
</svg>