<?xml version="1.0" encoding="UTF-8"?>
<svg width="9px" height="10px" viewBox="0 0 9 10" version="1.1" xmlns="http://www.w3.org/2000/svg" xmlns:xlink="http://www.w3.org/1999/xlink">
    <title>Group</title>
    <g id="MASTER-DOC" stroke="none" stroke-width="1" fill="none" fill-rule="evenodd">
        <g id="SEARCH-02" transform="translate(-16.000000, -139.000000)" fill="#000" stroke="#000" stroke-width="0.15">
            <g id="Group" transform="translate(16.999926, 140.500000)">
                <path d="M3.96562963,7.07628571 C2.10577778,7.07628571 0.592592593,5.61742857 0.592592593,3.824 C0.592592593,2.03057143 2.10577778,0.571428571 3.96562963,0.571428571 C5.82518519,0.571428571 7.33837037,2.03057143 7.33837037,3.824 C7.33837037,5.61742857 5.82518519,7.07628571 3.96562963,7.07628571 M3.96562963,5.32907052e-14 C1.77540741,5.32907052e-14 -8.02913291e-14,1.712 -8.02913291e-14,3.824 C-8.02913291e-14,5.93571429 1.77540741,7.64771429 3.96562963,7.64771429 C6.15555556,7.64771429 7.93096296,5.93571429 7.93096296,3.824 C7.93096296,1.712 6.15555556,5.32907052e-14 3.96562963,5.32907052e-14" id="Fill-1"></path>
                <path d="M4.26192593,3.74117143 L4.26192593,1.42088571 C4.26192593,1.26317143 4.12948148,1.13517143 3.96562963,1.13517143 C3.80177778,1.13517143 3.66933333,1.26317143 3.66933333,1.42088571 L3.66933333,3.82402857 C3.66933333,3.83002857 3.67259259,3.83517143 3.67288889,3.84145714 C3.66755556,3.92031429 3.69333333,4.00117143 3.75614815,4.06145714 L5.51792593,5.7606 C5.576,5.8166 5.65155556,5.84431429 5.72740741,5.84431429 C5.80325926,5.84431429 5.87911111,5.8166 5.93688889,5.7606 C6.05274074,5.64917143 6.05274074,5.46802857 5.93688889,5.3566 L4.26192593,3.74117143 Z" id="Fill-4"></path>
            </g>
        </g>
    </g>
</svg>
