<svg width="15" height="14" viewBox="0 0 15 14" fill="none" xmlns="http://www.w3.org/2000/svg">
<path d="M8.44035 7.08551L13.7307 1.79519C14.1178 1.40809 14.1178 0.827444 13.7307 0.440347C13.3436 0.0532502 12.7629 0.0532502 12.3758 0.440347L7.08551 5.73067L1.79519 0.440347C1.40809 0.0532502 0.827444 0.0532502 0.440347 0.440347C0.0532502 0.827444 0.0532502 1.40809 0.440347 1.79519L5.73067 7.08551L0.440347 12.3113C0.0532502 12.6984 0.0532502 13.2791 0.440347 13.6662C0.633895 13.8597 0.891961 13.9242 1.15003 13.9242C1.40809 13.9242 1.66615 13.8597 1.8597 13.6662L7.15002 8.37583L12.4403 13.6662C12.6339 13.8597 12.892 13.9242 13.15 13.9242C13.4081 13.9242 13.6662 13.8597 13.8597 13.6662C14.2468 13.2791 14.2468 12.6984 13.8597 12.3113L8.44035 7.08551Z" fill="#000"/>
</svg>
