<svg width="8" height="8" viewBox="0 0 8 8" fill="none" xmlns="http://www.w3.org/2000/svg">
<path fill-rule="evenodd" clip-rule="evenodd" d="M6.84865 7.18069C7.14154 6.8878 7.14154 6.41293 6.84865 6.12003L4.72732 3.9987L6.84864 1.87738C7.14154 1.58448 7.14154 1.10961 6.84864 0.816716C6.55575 0.523823 6.08088 0.523823 5.78798 0.816716L3.66666 2.93804L1.54535 0.816733C1.25245 0.52384 0.777578 0.52384 0.484685 0.816733C0.191792 1.10963 0.191792 1.5845 0.484685 1.87739L2.606 3.9987L0.484685 6.12002C0.191791 6.41291 0.191791 6.88778 0.484685 7.18068C0.777578 7.47357 1.25245 7.47357 1.54534 7.18068L3.66666 5.05936L5.78799 7.18069C6.08088 7.47359 6.55575 7.47359 6.84865 7.18069Z" fill="white"/>
</svg>
