<svg width="9" height="9" viewBox="0 0 9 9" fill="none" xmlns="http://www.w3.org/2000/svg">
<path d="M8.26974 8.37174C8.04892 8.59257 7.69214 8.59141 7.47308 8.37235L4.50649 5.40576L1.53396 8.37829C1.31313 8.59912 0.956353 8.59796 0.737295 8.3789C0.516805 8.15841 0.518509 7.80163 0.7379 7.58224L3.71044 4.6097L0.726665 1.62593C0.506176 1.40544 0.50788 1.04866 0.727271 0.829272C0.946662 0.609881 1.30487 0.609609 1.52393 0.828667L4.50627 3.81101L7.48168 0.835602C7.7025 0.614777 8.05928 0.615938 8.27834 0.834996C8.49883 1.05549 8.49712 1.41227 8.27773 1.63166L5.30232 4.60706L8.26892 7.57365C8.48941 7.79414 8.48913 8.15235 8.26974 8.37174Z" fill="white"/>
</svg>
