<svg width="12" height="12" viewBox="0 0 12 12" fill="none" xmlns="http://www.w3.org/2000/svg">
<path d="M11.8534 0.146393C11.7596 0.0526577 11.6325 0 11.4999 0C11.3673 0 11.2402 0.0526577 11.1464 0.146393L5.99989 5.29289L0.853393 0.146393C0.759629 0.0526577 0.632475 0 0.499893 0C0.367311 0 0.240157 0.0526577 0.146393 0.146393C0.0526577 0.240157 0 0.367311 0 0.499893C0 0.632475 0.0526577 0.759629 0.146393 0.853393L5.29289 5.99989L0.146393 11.1464C0.0526577 11.2402 0 11.3673 0 11.4999C0 11.6325 0.0526577 11.7596 0.146393 11.8534C0.240157 11.9471 0.367311 11.9998 0.499893 11.9998C0.632475 11.9998 0.759629 11.9471 0.853393 11.8534L5.99989 6.70689L11.1464 11.8534C11.2402 11.9471 11.3673 11.9998 11.4999 11.9998C11.6325 11.9998 11.7596 11.9471 11.8534 11.8534C11.9471 11.7596 11.9998 11.6325 11.9998 11.4999C11.9998 11.3673 11.9471 11.2402 11.8534 11.1464L6.70689 5.99989L11.8534 0.853393C11.9471 0.759629 11.9998 0.632475 11.9998 0.499893C11.9998 0.367311 11.9471 0.240157 11.8534 0.146393Z" fill="#808080"/>
</svg>
