<svg width="20" height="20" viewBox="0 0 20 20" fill="none" xmlns="http://www.w3.org/2000/svg">
<rect width="20" height="20" rx="6" fill="black"/>
<path fill-rule="evenodd" clip-rule="evenodd" d="M14.5 9.99834C14.5 9.58412 14.1642 9.24834 13.75 9.24834L10.75 9.24834L10.75 6.24833C10.75 5.83411 10.4142 5.49833 10 5.49833C9.58578 5.49833 9.25 5.83411 9.25 6.24833L9.25 9.24834L6.25001 9.24834C5.8358 9.24834 5.50001 9.58412 5.50001 9.99834C5.50001 10.4126 5.8358 10.7483 6.25001 10.7483L9.25 10.7483L9.25 13.7483C9.25 14.1625 9.58578 14.4983 10 14.4983C10.4142 14.4983 10.75 14.1625 10.75 13.7483L10.75 10.7483L13.75 10.7483C14.1642 10.7483 14.5 10.4126 14.5 9.99834Z" fill="white"/>
</svg>
