<svg width="16" height="16" viewBox="0 0 16 16" fill="none" xmlns="http://www.w3.org/2000/svg">
<path d="M7.9983 13.3334C7.686 13.3334 7.43455 13.0803 7.43455 12.7705V8.57506H3.23074C2.91845 8.57506 2.66699 8.32196 2.66699 8.01217C2.66699 7.70035 2.92048 7.44927 3.23074 7.44927H7.43455V3.22958C7.43455 2.91776 7.68803 2.66669 7.9983 2.66669C8.30856 2.66669 8.56205 2.91979 8.56205 3.22958V7.44725H12.7699C13.0822 7.44725 13.3337 7.70035 13.3337 8.01014C13.3337 8.32196 13.0802 8.57304 12.7699 8.57304H8.56205V12.7684C8.56205 13.0803 8.30856 13.3334 7.9983 13.3334Z" fill="white"/>
</svg>
