<svg width="11" height="11" viewBox="0 0 11 11" fill="none" xmlns="http://www.w3.org/2000/svg">
<path d="M10.2393 4.95666H6.70086C6.62298 4.95653 6.54589 4.94109 6.47399 4.9112C6.4021 4.88131 6.33682 4.83757 6.28189 4.78247C6.22695 4.72738 6.18343 4.66201 6.15383 4.59012C6.12423 4.51823 6.10911 4.44121 6.10936 4.36349V0.757078C6.10936 0.600513 6.04705 0.450361 5.93612 0.339653C5.8252 0.228944 5.67475 0.166748 5.51788 0.166748C5.36101 0.166748 5.21056 0.228944 5.09964 0.339653C4.98871 0.450361 4.9264 0.600513 4.9264 0.757078V4.36538C4.92665 4.44311 4.91154 4.52012 4.88194 4.59201C4.85234 4.66391 4.80882 4.72927 4.75389 4.78437C4.69895 4.83946 4.63367 4.8832 4.56178 4.91309C4.48989 4.94298 4.41279 4.95843 4.33491 4.95855H0.73758C0.584187 4.96467 0.439118 5.0298 0.332757 5.14028C0.226397 5.25076 0.166992 5.39803 0.166992 5.55125C0.166992 5.70446 0.226397 5.85174 0.332757 5.96222C0.439118 6.0727 0.584187 6.13783 0.73758 6.14395H4.33871C4.41659 6.14407 4.49368 6.15952 4.56557 6.18941C4.63746 6.2193 4.70275 6.26304 4.75769 6.31813C4.81262 6.37323 4.85614 6.43859 4.88574 6.51049C4.91534 6.58238 4.93045 6.65939 4.9302 6.73712V10.2431C4.9302 10.3997 4.99251 10.5498 5.10344 10.6605C5.21436 10.7712 5.36481 10.8334 5.52168 10.8334C5.67855 10.8334 5.829 10.7712 5.93992 10.6605C6.05085 10.5498 6.11317 10.3997 6.11317 10.2431V6.73712C6.11304 6.65947 6.12824 6.58256 6.1579 6.51077C6.18756 6.43899 6.23109 6.37374 6.28601 6.31875C6.34094 6.26375 6.40617 6.22009 6.478 6.19026C6.54983 6.16044 6.62685 6.14502 6.70465 6.1449H10.2441C10.3218 6.14465 10.3988 6.1291 10.4705 6.09914C10.5422 6.06919 10.6073 6.02541 10.6621 5.97032C10.7169 5.91522 10.7602 5.84989 10.7896 5.77807C10.8191 5.70624 10.834 5.62933 10.8337 5.55172C10.8319 5.39521 10.7687 5.24563 10.6575 5.13522C10.5463 5.0248 10.3961 4.96238 10.2393 4.96139" fill="black"/>
</svg>
