<svg width="16" height="16" viewBox="0 0 16 16" fill="none" xmlns="http://www.w3.org/2000/svg">
<path fill-rule="evenodd" clip-rule="evenodd" d="M8 1.5C11.5899 1.5 14.5 4.41015 14.5 8C14.5 11.5898 11.5899 14.5 8 14.5C4.41015 14.5 1.5 11.5898 1.5 8C1.5 4.41015 4.41015 1.5 8 1.5ZM8 0C12.4183 0 16 3.58172 16 8C16 12.4183 12.4183 16 8 16C3.58172 16 0 12.4183 0 8C0 3.58172 3.58172 0 8 0ZM7.53033 4.28769L10.7123 7.46967C11.0052 7.76256 11.0052 8.23744 10.7123 8.53033L7.53033 11.7123C7.23744 12.0052 6.76256 12.0052 6.46967 11.7123C6.17678 11.4194 6.17678 10.9445 6.46967 10.6517L9.12132 8L6.46967 5.34835C6.17678 5.05546 6.17678 4.58058 6.46967 4.28769C6.76256 3.9948 7.23744 3.9948 7.53033 4.28769Z" fill="black"/>
</svg>
