<svg width="18" height="18" viewBox="0 0 18 18" fill="none" xmlns="http://www.w3.org/2000/svg">
<path fill-rule="evenodd" clip-rule="evenodd" d="M12.9099 3.71751C15.4483 6.25592 15.4483 10.3715 12.9099 12.9099C10.3715 15.4483 6.25593 15.4483 3.71753 12.9099C1.17912 10.3715 1.17912 6.25592 3.71753 3.71751C6.25593 1.1791 10.3715 1.1791 12.9099 3.71751ZM14.4764 13.4157C17.0845 10.2728 16.9159 5.60221 13.9706 2.65685C10.8464 -0.467343 5.78106 -0.467343 2.65687 2.65685C-0.467328 5.78105 -0.467328 10.8464 2.65687 13.9706C5.60222 16.9159 10.2728 17.0845 13.4157 14.4764L16.4454 17.5061C16.7383 17.799 17.2132 17.799 17.5061 17.5061C17.799 17.2132 17.799 16.7383 17.5061 16.4454L14.4764 13.4157Z" fill="black"/>
</svg>
