<svg width="24" height="24" viewBox="0 0 24 24" fill="none" xmlns="http://www.w3.org/2000/svg">
<path d="M12.0162 4.00003C11.2244 3.99683 10.4494 4.2287 9.78952 4.66627C9.1296 5.10384 8.61439 5.72743 8.30915 6.45804C8.00392 7.18866 7.92239 7.99343 8.0749 8.77041C8.2274 9.5474 8.60708 10.2616 9.16584 10.8227C9.7246 11.3837 10.4373 11.7663 11.2137 11.9219C11.99 12.0776 12.7951 11.9993 13.527 11.6971C14.2588 11.3948 14.8845 10.8821 15.3247 10.224C15.765 9.56584 16 8.79184 16 8.00003C16.0011 7.47579 15.8989 6.95647 15.6993 6.47172C15.4997 5.98696 15.2066 5.54628 14.8366 5.17483C14.4667 4.80339 14.0272 4.50846 13.5433 4.30688C13.0593 4.10531 12.5404 4.00104 12.0162 4.00003V4.00003ZM12.0162 5.06482C12.6945 5.06303 13.3524 5.29657 13.8778 5.72563C14.4032 6.15468 14.7635 6.75268 14.8973 7.41767C15.0311 8.08266 14.9301 8.77347 14.6115 9.37232C14.2929 9.97116 13.7765 10.441 13.1503 10.7016C12.524 10.9623 11.8268 10.9977 11.1774 10.8018C10.528 10.6059 9.96663 10.1908 9.58905 9.62725C9.21147 9.06374 9.04103 8.3867 9.1068 7.71158C9.17257 7.03646 9.47046 6.40506 9.9497 5.92501C10.2199 5.65181 10.5418 5.43506 10.8966 5.28739C11.2513 5.13972 11.6319 5.06406 12.0162 5.06482" fill="black"/>
<path d="M12.0608 13C8.75538 13 4.98826 15.6195 4.04824 18.6122C3.99801 18.7728 3.98682 18.9427 4.01555 19.1082C4.04429 19.2738 4.11215 19.4304 4.21367 19.5654C4.3152 19.7004 4.44754 19.8101 4.60004 19.8856C4.75254 19.9611 4.92093 20.0003 5.09164 20H18.9091C19.0808 19.9995 19.2499 19.9592 19.4029 19.8825C19.5559 19.8057 19.6883 19.6946 19.7896 19.5582C19.8908 19.4217 19.958 19.2638 19.9857 19.097C20.0134 18.9303 20.0008 18.7595 19.949 18.5984C19.0098 15.6678 15.3513 13 12.0643 13H12.0608ZM12.0643 14.0766C13.6158 14.0766 15.4013 14.8075 16.8389 16.0315C17.5001 16.586 18.0588 17.2488 18.4903 17.9908C18.5941 18.1727 18.6871 18.3603 18.7689 18.5528C18.7862 18.5936 18.793 18.6379 18.7887 18.6819C18.7844 18.7259 18.7691 18.7682 18.7443 18.805C18.7194 18.8418 18.6857 18.8721 18.6461 18.893C18.6066 18.914 18.5624 18.925 18.5175 18.9251H5.47798C5.43306 18.925 5.38886 18.914 5.34931 18.893C5.30975 18.8721 5.27605 18.8418 5.25119 18.805C5.22633 18.7682 5.21108 18.7259 5.20678 18.6819C5.20249 18.6379 5.20927 18.5936 5.22655 18.5528C5.31268 18.3481 5.41218 18.1492 5.52442 17.9571C5.96772 17.2149 6.54036 16.5552 7.21612 16.0083C7.92555 15.4207 8.72355 14.9452 9.58151 14.5989C10.368 14.2722 11.2107 14.0967 12.0643 14.0818" fill="black"/>
</svg>
