<svg width="21" height="21" viewBox="0 0 21 21" fill="none" xmlns="http://www.w3.org/2000/svg">
<path d="M10.408 7.29282C11.0405 7.29484 11.6582 7.48405 12.1831 7.83656C12.708 8.18908 13.1165 8.68908 13.3572 9.27342C13.5978 9.85777 13.6597 10.5002 13.5351 11.1197C13.4105 11.7392 13.1049 12.3079 12.657 12.754C12.209 13.2001 11.6388 13.5035 11.0183 13.6261C10.3979 13.7486 9.75496 13.6847 9.17082 13.4424C8.58668 13.2002 8.08752 12.7904 7.73634 12.2649C7.38517 11.7393 7.19773 11.1217 7.19773 10.4898C7.19772 10.0691 7.28082 9.65254 7.44228 9.264C7.60373 8.87546 7.84038 8.52257 8.13861 8.22557C8.43685 7.92857 8.79082 7.6933 9.18025 7.53324C9.56968 7.37318 9.98689 7.29148 10.408 7.29282ZM10.408 5.92415C9.50326 5.9201 8.61771 6.18443 7.86349 6.68365C7.10926 7.18286 6.52032 7.8945 6.17129 8.7284C5.82225 9.56229 5.72882 10.4809 5.90284 11.3679C6.07686 12.2549 6.51049 13.0703 7.1488 13.7109C7.78711 14.3515 8.60139 14.7883 9.48845 14.9662C10.3755 15.144 11.2954 15.0548 12.1317 14.7098C12.9679 14.3649 13.6829 13.7797 14.186 13.0284C14.6891 12.2772 14.9576 11.3937 14.9576 10.4898C14.9576 9.28244 14.4789 8.12424 13.6263 7.2686C12.7737 6.41296 11.6165 5.92955 10.408 5.92415Z" fill="#000"/>
<path d="M7.1057 1.3585C7.27936 1.35999 7.44919 1.40948 7.59642 1.5015L8.6188 2.10412C9.19342 2.45849 9.85541 2.64617 10.5307 2.64617C11.206 2.64617 11.8679 2.45849 12.4425 2.10412L13.4649 1.5015C13.6078 1.40825 13.7748 1.35856 13.9454 1.3585C14.1579 1.35932 14.3639 1.43118 14.5306 1.56262C14.6974 1.69406 14.8153 1.8775 14.8656 2.08369L15.1314 3.21744C15.2845 3.86826 15.6132 4.46471 16.0819 4.94192C16.5505 5.41914 17.1412 5.75886 17.7896 5.92414L18.9244 6.19992C19.0684 6.23407 19.2021 6.30201 19.3145 6.39813C19.4269 6.49424 19.5147 6.61575 19.5707 6.75257C19.6267 6.88938 19.6492 7.03756 19.6364 7.18481C19.6236 7.33206 19.5758 7.47413 19.497 7.59923L18.8938 8.62063C18.5379 9.19428 18.3494 9.85577 18.3494 10.5306C18.3494 11.2055 18.5379 11.867 18.8938 12.4407L19.497 13.4621C19.5763 13.5853 19.6243 13.726 19.6368 13.8719C19.6493 14.0179 19.6258 14.1647 19.5685 14.2996C19.514 14.4379 19.427 14.561 19.3149 14.6588C19.2028 14.7565 19.0689 14.826 18.9244 14.8614L17.7896 15.1269C17.1317 15.284 16.5303 15.62 16.0521 16.0978C15.5738 16.5756 15.2375 17.1764 15.0803 17.8336L14.8144 18.9674C14.7622 19.1717 14.6435 19.3528 14.4769 19.4823C14.3103 19.6117 14.1054 19.6821 13.8943 19.6824C13.7236 19.6823 13.5567 19.6326 13.4138 19.5394L12.3914 18.9367C11.8168 18.5824 11.1548 18.3947 10.4795 18.3947C9.80427 18.3947 9.14231 18.5824 8.5677 18.9367L7.54531 19.5394C7.39808 19.6314 7.22822 19.6809 7.05456 19.6824C6.84434 19.6834 6.63999 19.6133 6.47476 19.4835C6.30952 19.3536 6.19316 19.1717 6.14466 18.9674L5.86859 17.8336C5.71802 17.1822 5.39157 16.5845 4.92471 16.1054C4.45785 15.6264 3.86844 15.2845 3.22062 15.1167L2.0858 14.8512C1.94012 14.8157 1.80489 14.7463 1.69117 14.6487C1.57745 14.551 1.48846 14.4279 1.43146 14.2894C1.37416 14.1545 1.35075 14.0077 1.36322 13.8617C1.37569 13.7158 1.42368 13.575 1.50303 13.4518L2.10623 12.4304C2.46207 11.8568 2.65062 11.1953 2.65062 10.5204C2.65062 9.84555 2.46207 9.18407 2.10623 8.61042L1.50303 7.58902C1.42427 7.46323 1.37681 7.32043 1.36459 7.17256C1.35238 7.02469 1.37575 6.87605 1.4328 6.73906C1.48985 6.60207 1.57891 6.48072 1.69251 6.38515C1.80611 6.28958 1.94097 6.22256 2.0858 6.18971L3.22062 5.91393C3.87529 5.75605 4.47367 5.42079 4.94989 4.94503C5.4261 4.46927 5.7617 3.87148 5.91973 3.21744L6.19576 2.08369C6.24227 1.87746 6.35776 1.69322 6.52318 1.56138C6.6886 1.42954 6.89409 1.35798 7.1057 1.3585ZM13.9352 4.48039e-05C13.5126 -0.00262679 13.0979 0.114229 12.739 0.337106L11.7166 0.949944C11.3566 1.17025 10.9426 1.28684 10.5205 1.28684C10.0983 1.28684 9.68427 1.17025 9.32425 0.949944L8.30187 0.337106C7.94297 0.114229 7.52828 -0.00262679 7.1057 4.48039e-05C6.58927 -0.000714743 6.08759 0.172153 5.68145 0.490825C5.27531 0.809497 4.98832 1.25543 4.86668 1.75684L4.59061 2.85995C4.49351 3.27227 4.28325 3.64937 3.98345 3.94889C3.68365 4.2484 3.3062 4.45846 2.89349 4.55547L1.75863 4.83125C1.40644 4.91651 1.07942 5.08368 0.804166 5.31915C0.528917 5.55461 0.313249 5.85171 0.174725 6.18624C0.0361998 6.52077 -0.0212708 6.88326 0.00702112 7.24418C0.0353131 7.6051 0.148567 7.95424 0.33753 8.26314L0.950934 9.28454C1.17124 9.64616 1.28778 10.0613 1.28778 10.4847C1.28778 10.908 1.17124 11.3232 0.950934 11.6848L0.33753 12.7062C0.148567 13.0151 0.0353131 13.3643 0.00702112 13.7252C-0.0212708 14.0861 0.0361998 14.4486 0.174725 14.7831C0.313249 15.1176 0.528917 15.4147 0.804166 15.6502C1.07942 15.8857 1.40644 16.0529 1.75863 16.1381L2.89349 16.4139C3.30569 16.512 3.68257 16.7224 3.9822 17.0217C4.28183 17.3211 4.49243 17.6976 4.59061 18.1094L4.86668 19.2432C4.98832 19.7446 5.27531 20.1905 5.68145 20.5092C6.08759 20.8278 6.58927 21.0007 7.1057 21C7.52828 21.0026 7.94297 20.8858 8.30187 20.6629L9.32425 20.0603C9.68427 19.84 10.0983 19.7234 10.5205 19.7234C10.9426 19.7234 11.3566 19.84 11.7166 20.0603L12.739 20.6629C13.0979 20.8858 13.5126 21.0026 13.9352 21C14.4506 20.9912 14.9481 20.809 15.347 20.4827C15.7459 20.1565 16.0229 19.7054 16.1333 19.2023L16.4094 18.0685C16.5097 17.6577 16.721 17.2824 17.0203 16.9834C17.3196 16.6844 17.6953 16.4732 18.1065 16.373L19.2414 16.0973C19.5936 16.012 19.9206 15.8448 20.1958 15.6094C20.4711 15.3739 20.6868 15.0768 20.8253 14.7423C20.9638 14.4077 21.0213 14.0452 20.993 13.6843C20.9647 13.3234 20.8514 12.9743 20.6625 12.6654L20.0593 11.644C19.839 11.2823 19.7224 10.8672 19.7224 10.4438C19.7224 10.0205 19.839 9.6053 20.0593 9.24368L20.6625 8.22229C20.8291 7.91718 20.9242 7.5783 20.9408 7.23115C20.9573 6.884 20.8949 6.53762 20.7581 6.21807C20.6213 5.89852 20.4137 5.61414 20.151 5.38631C19.8883 5.15848 19.5773 4.99315 19.2414 4.90275L18.1065 4.62697C17.6851 4.52335 17.3019 4.30225 17.0014 3.98941C16.7009 3.67657 16.4956 3.28487 16.4094 2.85995L16.1333 1.7262C16.0076 1.23722 15.7242 0.803207 15.3269 0.491213C14.9296 0.179218 14.4405 0.00660706 13.9352 4.48039e-05Z" fill="#000"/>
</svg>
