<svg width="23" height="20" viewBox="0 0 23 20" fill="none" xmlns="http://www.w3.org/2000/svg">
<path fill-rule="evenodd" clip-rule="evenodd" d="M14.1974 0.304491C14.0656 0.164846 13.894 0.0672586 13.705 0.0244031C13.5145 -0.0187929 13.3153 -0.00440487 13.1332 0.0656729C12.9513 0.135761 12.795 0.258251 12.6852 0.417084C12.5761 0.574831 12.5178 0.761088 12.5177 0.951729L12.4959 4.51547C12.4932 4.69076 12.4218 4.85832 12.2967 4.98334C12.1711 5.10879 12.0009 5.18167 11.822 5.18679L11.8175 5.18692L11.8131 5.1871C7.72709 5.35823 4.60418 6.77856 2.59075 9.17354C0.584282 11.5603 -0.246992 14.8277 0.0631015 18.5602C0.0764156 18.7456 0.144666 18.9231 0.25951 19.071C0.376012 19.2209 0.535208 19.3334 0.716904 19.3944C0.898612 19.4552 1.09464 19.4617 1.28013 19.4131C1.46203 19.3654 1.62578 19.2667 1.75141 19.1291C4.45005 16.264 7.65724 14.5122 11.6939 14.2919C12.1431 14.2674 12.5089 14.634 12.5089 15.0839V18.5542L12.509 18.5575C12.511 18.7484 12.5713 18.9343 12.6821 19.0911C12.7931 19.2478 12.9493 19.3683 13.1308 19.4367C13.3122 19.5051 13.5104 19.5185 13.6995 19.4748C13.8888 19.4313 14.0603 19.3328 14.1918 19.1923L14.1932 19.1908L22.4822 10.2767C22.6539 10.1005 22.75 9.8657 22.75 9.62136C22.75 9.375 22.6524 9.13853 22.4781 8.96177L14.1974 0.304491ZM13.7277 17.9017L21.4249 9.62393L13.7326 1.58177L13.7146 4.5343C13.7069 5.02988 13.505 5.49895 13.1581 5.8455M13.7277 17.9017V15.0839C13.7277 13.977 12.8162 13.0101 11.6274 13.075C7.41861 13.3046 4.04353 15.0766 1.24032 17.9042C1.07361 14.6482 1.86914 11.9259 3.52365 9.95779C5.26866 7.8821 8.03614 6.56588 11.8604 6.40494C12.3455 6.39016 12.811 6.1923 13.1581 5.8455" fill="white"/>
</svg>
