<svg width="24" height="24" viewBox="0 0 24 24" fill="none" xmlns="http://www.w3.org/2000/svg">
<path fill-rule="evenodd" clip-rule="evenodd" d="M12 3.6C7.36081 3.6 3.6 7.36081 3.6 12C3.6 16.6392 7.36081 20.4 12 20.4C16.6392 20.4 20.4 16.6392 20.4 12C20.4 7.36081 16.6392 3.6 12 3.6ZM2.4 12C2.4 6.69807 6.69807 2.4 12 2.4C17.3019 2.4 21.6 6.69807 21.6 12C21.6 17.3019 17.3019 21.6 12 21.6C6.69807 21.6 2.4 17.3019 2.4 12Z" fill="black"/>
<path fill-rule="evenodd" clip-rule="evenodd" d="M12 8.4C12.3314 8.4 12.6 8.66863 12.6 9V12.3828L14.4609 14.6159C14.6731 14.8705 14.6387 15.2488 14.3841 15.4609C14.1295 15.6731 13.7512 15.6387 13.5391 15.3841L11.5391 12.9841C11.4492 12.8763 11.4 12.7404 11.4 12.6V9C11.4 8.66863 11.6686 8.4 12 8.4Z" fill="black"/>
</svg>
